<svg width="300" height="300" viewBox="0 0 300 300" fill="none" xmlns="http://www.w3.org/2000/svg">
<rect width="300" height="300" rx="81" fill="#ABEE4C"/>
<path d="M263 150.5C263 212.632 212.632 263 150.5 263C88.368 263 38 212.632 38 150.5C38 88.368 88.368 38 150.5 38C212.632 38 263 88.368 263 150.5ZM66.125 150.5C66.125 197.099 103.901 234.875 150.5 234.875C197.099 234.875 234.875 197.099 234.875 150.5C234.875 103.901 197.099 66.125 150.5 66.125C103.901 66.125 66.125 103.901 66.125 150.5Z" fill="black"/>
<path d="M212.375 150.5C212.375 184.673 184.673 212.375 150.5 212.375C116.327 212.375 88.625 184.673 88.625 150.5C88.625 116.327 116.327 88.625 150.5 88.625C184.673 88.625 212.375 116.327 212.375 150.5ZM116.469 150.5C116.469 169.295 131.705 184.531 150.5 184.531C169.295 184.531 184.531 169.295 184.531 150.5C184.531 131.705 169.295 116.469 150.5 116.469C131.705 116.469 116.469 131.705 116.469 150.5Z" fill="black"/>
</svg>


